<svg xmlns="http://www.w3.org/2000/svg" xmlns:xlink="http://www.w3.org/1999/xlink" viewBox="0 0 182.39 62.58"><defs><style>.cls-1{fill:none;}.cls-2{clip-path:url(#clip-path);}.cls-3{fill:#0067ac;}</style><clipPath id="clip-path"><rect class="cls-1" width="182.39" height="62.58"/></clipPath></defs><g id="Layer_2" data-name="Layer 2"><g id="Layer_1-2" data-name="Layer 1"><g class="cls-2"><path d="M83.57,24.09c-1.31,0-1.48,0-1.48-5.34V13.69c0-2.12-.92-4.38-4.28-4.38-2.3,0-4.18,1.3-6,2.83V9.31c-.53,0-1.34.14-2.44.28-.85.1-2,.28-2.47.28v.85h1.87c.6,0,1,0,1,3.15v9.87c0,.35-.35.35-.67.35H66.39c-.77,0-1.23-1.16-1.73-2.33C63.35,18.65,58.36,4.42,58.36,3c0-.75.61-.67.61-1.1a.22.22,0,0,0-.22-.25,9.12,9.12,0,0,0-1.84.39L48,23.28c-.28.71-.39.81-2.05.81v.85h7.18v-.85h-2.3c-.85,0-.88-.7-.88-1A28.62,28.62,0,0,1,52,16.35h8.32c1.09,3,2.51,7,2.51,7.28s-.07.46-.67.46H60.42v.85H74.7v-.85H73.28c-1.31,0-1.49,0-1.49-5.34V13.23A8.13,8.13,0,0,1,77.1,10.9c1.63,0,2.94.81,2.94,3.61v9.23c0,.35-.36.35-.68.35h-1.3v.85H85v-.85H83.57M52.49,15.18c1.24-3.19,2.3-5.73,4.14-10l3.26,10Z"/></g><g class="cls-2"><path d="M97.08,4.81c0-3.15-.39-3.15-1-3.15H94.21V.82A25.67,25.67,0,0,0,99.13,0V18.75c0,5.34.18,5.34,1.49,5.34H102v.85c-.35,0-1.41.14-2.47.28s-2.09.29-2.48.29V22.85c-2.26,1.67-3.75,2.66-5.8,2.66-4.18,0-6-4-6-7.72,0-4.52,2.76-8.49,7.61-8.49a7.56,7.56,0,0,1,4.21,1.24V4.81m0,6.83a6.43,6.43,0,0,0-3.86-1.38c-4,0-5.8,3.22-5.8,7,0,3.33,1.49,6.58,5.24,6.58a6.33,6.33,0,0,0,4.42-2Z"/></g><g class="cls-2"><path d="M105.31,13.87c0-3.15-.39-3.15-1-3.15h-1.88V9.87c.5,0,1.63-.17,2.48-.28,1.09-.14,1.91-.28,2.44-.28v3c2.65-2.41,3.61-3,4.7-3a2.22,2.22,0,0,1,1.67.77c-.39,2.27-.5,2.38-.75,2.38-.53,0-.17-1.07-2-1.07-1.13,0-2.05.5-3.57,2.09v5.27c0,5.34.18,5.34,1.48,5.34h1.42v.85h-6.94v-.85h1.31c.32,0,.68,0,.68-.35V13.87"/></g><g class="cls-2"><path d="M116.32,17.09C116.5,20.77,118,24,122.2,24a6.26,6.26,0,0,0,4.52-1.8l.5.53a8.65,8.65,0,0,1-6.47,2.83c-4.39,0-6.48-3.68-6.48-7.64s2.16-8.56,6.69-8.56c3.91,0,6.21,3.52,6.21,7.76l-10.85,0m9-.94c0-1.34-.47-5.89-4.7-5.89-2.51,0-4.31,3.29-4.31,5.91Z"/></g><g class="cls-2"><path d="M152,10.72H151c-.39,0-.46,0-.92,1-.29.6-2.94,6.93-5.52,13.44-.14.32-.22.49-.39.49s-.29-.14-.5-.63L139.85,14.9,135.64,25c-.22.49-.25.63-.5.63s-.32-.21-.49-.67L130,12.88c-.75-1.59-1-2.16-1.7-2.16h-1V9.87h6.44v.85H132c-.32,0-.57,0-.57.21,0,.43.64,1.81,4.25,10.93,1.66-3.21,2.44-5.3,3.68-8.13-1.13-3-1.2-3-2-3h-.92V9.87h6.36v.85H141c-.31,0-.56,0-.56.21,0,.43,2.58,6.69,4.28,10.93,3.93-9.23,4-9.69,4-10.57,0-.5-.25-.57-.75-.57h-1.55V9.87H152v.85"/></g><g class="cls-2"><path d="M154.42,13.23c0,3.79,9.06,1.74,9.06,7.33,0,3.53-3.72,5-6.72,5a11.7,11.7,0,0,1-4-.67c-.21-1.35-.46-2.69-.46-3.05s.14-.31.39-.31.36.35.43.6c.24,1.31,2.76,2.26,4.56,2.26s4-1.06,4-3.25c0-4.11-8.88-1.67-8.88-7.19,0-2.4,2.41-4.59,5.56-4.59a9.42,9.42,0,0,1,4,.74c.11.95.21,2.16.21,2.41a.22.22,0,0,1-.25.24c-.24,0-.28-.14-.38-.32s-.92-1.91-4-1.91c-1.49,0-3.54.92-3.54,2.76"/></g><g class="cls-2"><path d="M62.08,31.34h6.47v1H67.1c-.39,0-.71.07-.71.35V45.53c0,6.76-4.81,8.95-9.19,8.95C54,54.48,49,53.1,49,46.73V37c0-4-.11-4.74-1-4.74H45.91v-1h7.61v1H52.1c-.42,0-.81,0-.81.35V46.2c0,6.12,4.32,6.94,6.51,6.94s7.43-.71,7.43-7.82V37.46c0-5.06-.39-5.16-1.17-5.16h-2v-1"/></g><g class="cls-2"><path d="M74,47.62C74,53,74.14,53,75.45,53h1.41v.85H69.93V53h1.31c.32,0,.67,0,.67-.35V42.73c0-3.14-.39-3.14-1-3.14H69v-.85c.5,0,1.63-.18,2.48-.29,1.1-.14,1.91-.28,2.44-.28V41c1.84-1.52,3.72-2.83,6-2.83,3.36,0,4.28,2.27,4.28,4.39v5.06c0,5.34.17,5.34,1.48,5.34h1.42v.85H80.22V53h1.31c.32,0,.67,0,.67-.35V43.37c0-2.79-1.3-3.61-2.93-3.61A8.15,8.15,0,0,0,74,42.1v5.52"/></g><g class="cls-2"><path d="M92.3,47.62c0,5.34.17,5.34,1.48,5.34H95.2v.85H88.26V53h1.31c.32,0,.67,0,.67-.35V42.73c0-3.14-.39-3.14-1-3.14H87.38v-.85c.49,0,1.63-.18,2.47-.29,1.1-.14,1.92-.28,2.45-.28v9.45M91.06,31.7A1.33,1.33,0,1,1,89.75,33a1.33,1.33,0,0,1,1.31-1.31"/></g><g class="cls-2"><path d="M94.85,38.74h6.44v.85H99.55c-.31,0-.56,0-.56.21,0,.42,1.45,3.68,4.56,11.21,2.65-5.59,4-9.41,4-10.86,0-.56-.46-.56-.88-.56H105v-.85h6v.85h-1.17c-.31,0-.42,0-.67.53-1.27,2.65-4.17,9.58-6,14-.1.21-.21.35-.39.35s-.21,0-.53-.74c-.35-1.24-3.64-9.52-4.81-12-.74-1.59-1-2.15-1.7-2.15h-1v-.85"/></g><g class="cls-2"><path d="M128,42.73c0-3.14-.39-3.14-1-3.14h-1.87v-.85c.49,0,1.62-.18,2.47-.29,1.1-.14,1.91-.28,2.44-.28v3c2.66-2.4,3.61-3,4.71-3a2.17,2.17,0,0,1,1.66.78c-.39,2.26-.49,2.37-.74,2.37-.53,0-.18-1.06-2.05-1.06-1.14,0-2.06.49-3.58,2.09v5.27c0,5.34.18,5.34,1.49,5.34H133v.85H126V53h1.31c.32,0,.67,0,.67-.35V42.73"/></g><g class="cls-2"><path d="M139.71,42.1c0,3.78,9.06,1.73,9.06,7.32,0,3.54-3.71,4.95-6.72,4.95a11.64,11.64,0,0,1-4-.67c-.22-1.34-.46-2.69-.46-3s.14-.32.39-.32.35.35.42.6c.25,1.31,2.76,2.27,4.56,2.27s4-1.06,4-3.26c0-4.1-8.88-1.66-8.88-7.18,0-2.41,2.4-4.6,5.55-4.6a9.42,9.42,0,0,1,4,.74c.11,1,.22,2.16.22,2.41a.23.23,0,0,1-.25.25c-.25,0-.28-.14-.39-.32s-.92-1.91-4-1.91c-1.48,0-3.54.92-3.54,2.76"/></g><g class="cls-2"><path d="M155.32,47.62c0,5.34.17,5.34,1.48,5.34h1.42v.85h-6.94V53h1.31c.32,0,.67,0,.67-.35V42.73c0-3.14-.39-3.14-1-3.14H150.4v-.85c.49,0,1.62-.18,2.47-.29,1.1-.14,1.91-.28,2.45-.28v9.45M154.08,31.7A1.33,1.33,0,1,1,152.77,33a1.33,1.33,0,0,1,1.31-1.31"/></g><g class="cls-2"><path d="M176.48,38.74v.85h1.59c.5,0,.85,0,.85.56s-.28,2.87-4,10.9c-1.38-3.26-4.67-10.83-4.67-11.25,0-.21.24-.21.56-.21h1.74l-.38-.85h-9.62V35.37H162l-2.87,3.4a.92.92,0,0,0-.35.57c0,.25.14.25.88.25h.78V51.12a2.93,2.93,0,0,0,3.08,3.25,9.82,9.82,0,0,0,4.18-1.24l-.32-.7A6.29,6.29,0,0,1,165,53c-2.3,0-2.47-1.7-2.47-3.29V39.59H167c.68,0,1,.53,1.7,2.15l5,11.71c-3.37,7.36-5.42,7.72-6.55,8.28-.42.18-.57.28-.57.43a.41.41,0,0,0,.43.42,14.19,14.19,0,0,0,3.64-.46c1.56-2,8.92-19.88,9.52-21.37.49-1.16.35-1.16,1-1.16h1.21v-.85h-5.91"/></g><g class="cls-2"><path d="M113,46.07c.17,3.68,1.66,6.87,5.87,6.87a6.23,6.23,0,0,0,4.52-1.81l.5.53a8.65,8.65,0,0,1-6.47,2.83c-4.39,0-6.48-3.67-6.48-7.64s2.16-8.56,6.69-8.56c3.91,0,6.21,3.31,6.21,7.76l-10.84,0m9-.94c-.16-1.36-.47-5.88-4.7-5.88-2.51,0-4.3,3.29-4.3,5.9Z"/></g><g class="cls-2"><path class="cls-3" d="M19.07.55S0,13.6,0,35.57V53.74H15.49V52.65h7.16v1.09H38.14V35.48c0-22-19.07-34.93-19.07-34.93M15,22.28c.11,4,1.11,5.32,4,7.94C25.35,36,22.29,41.87,21.05,43c1-5.27-.3-7.46-5.1-12.07-2.92-2.79-2.06-6.63-1-8.65m-2.41-2.45c-1.71,5.93-1.09,9.92,2.5,13.2C21.55,39,20.13,45,16.81,47.23H13C-.31,40,9.54,23.56,12.55,19.83M23.94,51H14.19l-1.52-2h12.8Zm1.23-3.73H18.5A10.51,10.51,0,0,0,23,31.6c-2.83-4-9.4-7.56-4.23-19.48C18,24.28,32.17,25.23,32.17,36.46c0,7.54-7,10.77-7,10.77"/></g></g></g></svg>